<?xml version="1.0" encoding="utf-8"?>
<!-- Generator: Adobe Illustrator 22.1.0, SVG Export Plug-In . SVG Version: 6.00 Build 0)  -->
<svg version="1.1" id="FBO_Logo" xmlns="http://www.w3.org/2000/svg" xmlns:xlink="http://www.w3.org/1999/xlink" x="0px" y="0px"
	 viewBox="0 0 594.7 133.9" style="enable-background:new 0 0 594.7 133.9;" xml:space="preserve">
<style type="text/css">
	.st0{fill:#0079C1;}
	.st1{fill:#EEB111;}
	.st2{fill:#8DC63F;}
</style>
<g id="Guides">
</g>
<g id="FIRST_BAPTIST_ORLANDO">
	<g id="ORLANDO">
		<path class="st0" d="M577.9,79.1c-1.8,0-3.5-0.3-5-1c-1.5-0.6-2.9-1.5-4-2.6c-1.1-1.1-2-2.4-2.6-3.8c-0.6-1.5-1-3-1-4.7V67
			c0-1.7,0.3-3.2,1-4.7c0.6-1.5,1.5-2.8,2.7-3.9c1.1-1.1,2.5-2,4-2.6c1.5-0.6,3.2-1,5-1c1.8,0,3.5,0.3,5,1c1.5,0.6,2.9,1.5,4,2.6
			c1.1,1.1,2,2.4,2.6,3.8c0.6,1.5,1,3,1,4.7V67c0,1.7-0.3,3.2-1,4.7c-0.6,1.5-1.5,2.8-2.7,3.9c-1.1,1.1-2.5,2-4,2.6
			C581.4,78.8,579.7,79.1,577.9,79.1z M577.9,73.3c0.9,0,1.7-0.2,2.4-0.5c0.7-0.3,1.4-0.8,1.9-1.4c0.5-0.6,0.9-1.2,1.2-2
			c0.3-0.8,0.4-1.6,0.4-2.4V67c0-0.8-0.1-1.6-0.4-2.4c-0.3-0.8-0.7-1.4-1.2-2c-0.5-0.6-1.2-1-1.9-1.4c-0.7-0.3-1.6-0.5-2.4-0.5
			c-0.9,0-1.7,0.2-2.4,0.5c-0.7,0.3-1.4,0.8-1.9,1.4c-0.5,0.6-0.9,1.2-1.2,2c-0.3,0.8-0.4,1.6-0.4,2.4V67c0,0.8,0.1,1.6,0.4,2.4
			c0.3,0.8,0.7,1.4,1.2,2c0.5,0.6,1.2,1,1.9,1.4C576.2,73.1,577,73.3,577.9,73.3z"/>
		<path class="st0" d="M540.6,55.3h9c2.1,0,4,0.3,5.6,0.9c1.6,0.6,3,1.4,4.1,2.4c1.1,1,2,2.2,2.6,3.7c0.6,1.4,0.9,3,0.9,4.7v0.1
			c0,1.7-0.3,3.3-0.9,4.7c-0.6,1.4-1.5,2.7-2.6,3.7c-1.1,1-2.5,1.9-4.2,2.5c-1.7,0.6-3.5,0.9-5.6,0.9h-8.9V55.3z M549.7,72.9
			c1.9,0,3.5-0.5,4.7-1.5c1.2-1,1.8-2.5,1.8-4.4v-0.1c0-1.9-0.6-3.3-1.8-4.4c-1.2-1-2.7-1.6-4.7-1.6h-2.6v11.9H549.7z"/>
		<path class="st0" d="M514.4,55.3h6.1l9.6,12.4V55.3h6.4v23.4h-5.7l-10-12.8v12.8h-6.4V55.3z"/>
		<path class="st0" d="M495.9,55.1h6.2l9.9,23.5h-6.9l-1.7-4.2h-9l-1.7,4.2H486L495.9,55.1z M501.6,69.5l-2.6-6.6l-2.6,6.6H501.6z"
			/>
		<path class="st0" d="M467.3,55.3h6.5V73h11.3v5.7h-17.8V55.3z"/>
		<path class="st0" d="M443.3,55.3h11c1.8,0,3.3,0.2,4.6,0.7c1.2,0.4,2.3,1.1,3,1.9c1.4,1.3,2.1,3.1,2.1,5.4v0.1
			c0,1.8-0.4,3.3-1.3,4.5c-0.9,1.2-2,2.1-3.5,2.7l5.6,8.1h-7.5l-4.7-7.1h-0.1h-2.8v7.1h-6.5V55.3z M454,66.5c1.1,0,2-0.3,2.6-0.8
			c0.6-0.5,0.9-1.2,0.9-2v-0.1c0-0.9-0.3-1.6-0.9-2.1c-0.6-0.5-1.5-0.7-2.6-0.7h-4.2v5.6H454z"/>
		<path class="st0" d="M427.3,79.1c-1.8,0-3.5-0.3-5-1c-1.5-0.6-2.9-1.5-4-2.6c-1.1-1.1-2-2.4-2.6-3.8c-0.6-1.5-1-3-1-4.7V67
			c0-1.7,0.3-3.2,1-4.7c0.6-1.5,1.5-2.8,2.7-3.9c1.1-1.1,2.5-2,4-2.6c1.5-0.6,3.2-1,5-1c1.8,0,3.5,0.3,5,1c1.5,0.6,2.9,1.5,4,2.6
			c1.1,1.1,2,2.4,2.6,3.8c0.6,1.5,1,3,1,4.7V67c0,1.7-0.3,3.2-1,4.7c-0.6,1.5-1.5,2.8-2.7,3.9c-1.1,1.1-2.5,2-4,2.6
			C430.8,78.8,429.1,79.1,427.3,79.1z M427.4,73.3c0.9,0,1.7-0.2,2.4-0.5c0.7-0.3,1.4-0.8,1.9-1.4c0.5-0.6,0.9-1.2,1.2-2
			c0.3-0.8,0.4-1.6,0.4-2.4V67c0-0.8-0.1-1.6-0.4-2.4c-0.3-0.8-0.7-1.4-1.2-2c-0.5-0.6-1.2-1-1.9-1.4c-0.7-0.3-1.6-0.5-2.4-0.5
			c-0.9,0-1.7,0.2-2.4,0.5c-0.7,0.3-1.3,0.8-1.9,1.4c-0.5,0.6-0.9,1.2-1.2,2c-0.3,0.8-0.4,1.6-0.4,2.4V67c0,0.8,0.1,1.6,0.4,2.4
			c0.3,0.8,0.7,1.4,1.2,2c0.5,0.6,1.2,1,1.9,1.4C425.7,73.1,426.5,73.3,427.4,73.3z"/>
	</g>
	<g id="BAPTIST">
		<path class="st0" d="M390.6,59.1h-7.4v-3.8h19v3.8h-7.4v19.6h-4.1V59.1z"/>
		<path class="st0" d="M371.7,79c-1.8,0-3.5-0.3-5.2-0.9c-1.6-0.6-3.2-1.6-4.6-2.8l2.5-2.9c1.1,1,2.3,1.7,3.4,2.3
			c1.2,0.5,2.5,0.8,3.9,0.8c1.3,0,2.3-0.3,3-0.8c0.7-0.5,1.1-1.2,1.1-2.1v-0.1c0-0.4-0.1-0.8-0.2-1.1c-0.1-0.3-0.4-0.6-0.8-0.9
			c-0.4-0.3-0.9-0.6-1.6-0.8c-0.7-0.2-1.6-0.5-2.7-0.7c-1.2-0.3-2.4-0.6-3.3-1c-1-0.4-1.8-0.8-2.4-1.3c-0.7-0.5-1.2-1.2-1.5-1.9
			c-0.3-0.8-0.5-1.7-0.5-2.7v-0.1c0-1,0.2-1.9,0.6-2.8c0.4-0.8,0.9-1.5,1.6-2.1c0.7-0.6,1.5-1.1,2.5-1.4c1-0.3,2-0.5,3.2-0.5
			c1.7,0,3.3,0.2,4.6,0.8c1.4,0.5,2.7,1.2,3.9,2.2l-2.2,3.1c-1.1-0.8-2.1-1.4-3.2-1.8c-1-0.4-2.1-0.6-3.2-0.6
			c-1.2,0-2.1,0.3-2.8,0.8c-0.7,0.5-1,1.2-1,2v0.1c0,0.4,0.1,0.8,0.2,1.2c0.2,0.3,0.4,0.7,0.9,0.9c0.4,0.3,1,0.5,1.7,0.8
			c0.7,0.2,1.6,0.5,2.8,0.8c1.2,0.3,2.3,0.7,3.3,1c0.9,0.4,1.7,0.8,2.4,1.4c0.6,0.5,1.1,1.2,1.4,1.9c0.3,0.7,0.5,1.6,0.5,2.5V72
			c0,1.1-0.2,2.1-0.6,2.9c-0.4,0.9-1,1.6-1.7,2.2c-0.7,0.6-1.6,1.1-2.6,1.4C374,78.8,372.9,79,371.7,79z"/>
		<path class="st0" d="M353.1,55.3h4.1v23.4h-4.1V55.3z"/>
		<path class="st0" d="M337,59.1h-7.4v-3.8h19v3.8h-7.4v19.6H337V59.1z"/>
		<path class="st0" d="M309,55.3h9.2c1.4,0,2.6,0.2,3.7,0.6c1.1,0.4,2,0.9,2.8,1.6c0.8,0.7,1.4,1.5,1.8,2.5c0.4,1,0.6,2,0.6,3.2v0.1
			c0,1.3-0.2,2.5-0.7,3.5c-0.5,1-1.2,1.8-2,2.5c-0.8,0.7-1.8,1.2-3,1.5c-1.1,0.3-2.4,0.5-3.6,0.5h-4.7v7.5H309V55.3z M317.8,67.4
			c1.6,0,2.8-0.4,3.7-1.2c0.9-0.8,1.4-1.8,1.4-3v-0.1c0-1.4-0.5-2.4-1.4-3.1c-0.9-0.7-2.1-1.1-3.7-1.1h-4.8v8.4H317.8z"/>
		<path class="st0" d="M290.9,55.1h3.8L305,78.6h-4.3l-2.4-5.6h-11l-2.4,5.6h-4.2L290.9,55.1z M296.8,69.4l-4-9.3l-4,9.3H296.8z"/>
		<path class="st0" d="M258.5,55.3H269c2.7,0,4.7,0.7,6.1,2.1c1,1,1.6,2.3,1.6,3.9v0.1c0,0.7-0.1,1.3-0.3,1.9
			c-0.2,0.5-0.4,1-0.7,1.4c-0.3,0.4-0.7,0.8-1.1,1.1c-0.4,0.3-0.8,0.6-1.2,0.8c0.7,0.2,1.3,0.5,1.9,0.9c0.6,0.3,1.1,0.7,1.5,1.2
			c0.4,0.4,0.7,1,0.9,1.6c0.2,0.6,0.3,1.3,0.3,2.1v0.1c0,1-0.2,2-0.6,2.8c-0.4,0.8-1,1.5-1.8,2c-0.8,0.5-1.7,0.9-2.7,1.2
			c-1.1,0.3-2.2,0.4-3.5,0.4h-10.8V55.3z M268.2,65.1c1.3,0,2.4-0.3,3.2-0.8c0.8-0.5,1.2-1.3,1.2-2.4v-0.1c0-0.9-0.3-1.7-1-2.2
			c-0.7-0.5-1.7-0.8-3-0.8h-5.9v6.2H268.2z M269.4,75c1.4,0,2.5-0.3,3.3-0.8c0.8-0.5,1.2-1.3,1.2-2.4v-0.1c0-1-0.4-1.8-1.2-2.3
			c-0.8-0.5-2-0.8-3.6-0.8h-6.5V75H269.4z"/>
	</g>
	<g id="FIRST">
		<path class="st0" d="M232.6,59.1h-7.4v-3.8h19v3.8h-7.4v19.6h-4.1V59.1z"/>
		<path class="st0" d="M213.7,79c-1.8,0-3.5-0.3-5.2-0.9c-1.6-0.6-3.2-1.6-4.6-2.8l2.5-2.9c1.1,1,2.3,1.7,3.4,2.3
			c1.2,0.5,2.5,0.8,3.9,0.8c1.3,0,2.3-0.3,3-0.8c0.7-0.5,1.1-1.2,1.1-2.1v-0.1c0-0.4-0.1-0.8-0.2-1.1c-0.1-0.3-0.4-0.6-0.8-0.9
			c-0.4-0.3-0.9-0.6-1.6-0.8c-0.7-0.2-1.6-0.5-2.7-0.7c-1.2-0.3-2.4-0.6-3.3-1c-1-0.4-1.8-0.8-2.4-1.3c-0.7-0.5-1.2-1.2-1.5-1.9
			c-0.3-0.8-0.5-1.7-0.5-2.7v-0.1c0-1,0.2-1.9,0.6-2.8c0.4-0.8,0.9-1.5,1.6-2.1c0.7-0.6,1.5-1.1,2.5-1.4c1-0.3,2-0.5,3.2-0.5
			c1.7,0,3.3,0.2,4.6,0.8c1.4,0.5,2.7,1.2,3.9,2.2l-2.2,3.1c-1.1-0.8-2.1-1.4-3.2-1.8c-1-0.4-2.1-0.6-3.2-0.6
			c-1.2,0-2.1,0.3-2.8,0.8c-0.7,0.5-1,1.2-1,2v0.1c0,0.4,0.1,0.8,0.2,1.2c0.2,0.3,0.4,0.7,0.9,0.9c0.4,0.3,1,0.5,1.7,0.8
			c0.7,0.2,1.6,0.5,2.8,0.8c1.2,0.3,2.3,0.7,3.3,1c0.9,0.4,1.7,0.8,2.4,1.4c0.6,0.5,1.1,1.2,1.4,1.9c0.3,0.7,0.5,1.6,0.5,2.5V72
			c0,1.1-0.2,2.1-0.6,2.9c-0.4,0.9-1,1.6-1.7,2.2c-0.7,0.6-1.6,1.1-2.6,1.4C216.1,78.8,214.9,79,213.7,79z"/>
		<path class="st0" d="M181.4,55.3h10.4c1.5,0,2.8,0.2,3.9,0.6c1.1,0.4,2.1,1,2.8,1.7c0.6,0.6,1.1,1.4,1.4,2.2
			c0.3,0.8,0.5,1.8,0.5,2.8v0.1c0,1-0.1,1.8-0.4,2.6c-0.3,0.8-0.7,1.4-1.2,2c-0.5,0.6-1.1,1.1-1.8,1.5c-0.7,0.4-1.4,0.7-2.3,1
			l6.3,8.8h-4.8l-5.8-8.1h-0.1h-5.1v8.1h-4.1V55.3z M191.5,66.9c1.5,0,2.6-0.4,3.5-1.1c0.9-0.7,1.3-1.7,1.3-2.9v-0.1
			c0-1.3-0.4-2.2-1.3-2.9c-0.8-0.7-2-1-3.6-1h-6v7.9H191.5z"/>
		<path class="st0" d="M171,55.3h4.1v23.4H171V55.3z"/>
		<path class="st0" d="M148.9,55.3h17.4V59H153v6.4h11.8v3.7H153v9.5h-4.1V55.3z"/>
	</g>
</g>
<g id="Rings__x26__Cross">
	<g id="Cross">
		<path class="st0" d="M73.1,87.6c0,2.7-2.2,4.9-4.9,4.9c-2.7,0-4.9-2.2-4.9-4.9c0-2.7,2.2-4.9,4.9-4.9
			C70.9,82.7,73.1,84.8,73.1,87.6"/>
		<path class="st0" d="M73.1,74c0,2.7-2.2,4.9-4.9,4.9c-2.7,0-4.9-2.2-4.9-4.9c0-2.7,2.2-4.9,4.9-4.9C70.9,69.1,73.1,71.3,73.1,74"
			/>
		<path class="st0" d="M82,65.8c-2.7,0-4.9-2.2-4.9-4.9c0-2.7,2.2-4.9,4.9-4.9c2.7,0,4.9,2.2,4.9,4.9C86.9,63.6,84.8,65.8,82,65.8"
			/>
		<path class="st0" d="M73.1,60.9c0,2.7-2.2,4.9-4.9,4.9c-2.7,0-4.9-2.2-4.9-4.9c0-2.7,2.2-4.9,4.9-4.9C70.9,56,73.1,58.2,73.1,60.9
			"/>
		<path class="st0" d="M54.4,65.8c-2.7,0-4.9-2.2-4.9-4.9c0-2.7,2.2-4.9,4.9-4.9c2.7,0,4.9,2.2,4.9,4.9
			C59.3,63.6,57.1,65.8,54.4,65.8"/>
		<path class="st0" d="M73.1,46.8c0,2.7-2.2,4.9-4.9,4.9c-2.7,0-4.9-2.2-4.9-4.9c0-2.7,2.2-4.9,4.9-4.9
			C70.9,41.9,73.1,44.1,73.1,46.8"/>
	</g>
	<g id="Rings">
		<path class="st1" d="M68.2,106.2C46.6,106.2,29,88.6,29,67s17.6-39.2,39.2-39.2c21.6,0,39.2,17.6,39.2,39.2S89.9,106.2,68.2,106.2
			z M68.2,32.3c-19.1,0-34.7,15.6-34.7,34.7s15.6,34.7,34.7,34.7c19.1,0,34.7-15.6,34.7-34.7S87.4,32.3,68.2,32.3z"/>
		<path class="st2" d="M68.2,118.2C40,118.2,17,95.2,17,67s23-51.2,51.2-51.2s51.2,23,51.2,51.2S96.5,118.2,68.2,118.2z M68.2,20.2
			c-25.8,0-46.7,21-46.7,46.7c0,25.8,21,46.7,46.7,46.7c25.8,0,46.7-21,46.7-46.7C115,41.2,94,20.2,68.2,20.2z"/>
		<path class="st0" d="M68.2,130C33.5,130,5.2,101.7,5.2,67S33.5,3.9,68.2,3.9c34.8,0,63.1,28.3,63.1,63.1S103,130,68.2,130z
			 M68.2,7.9C35.7,7.9,9.2,34.4,9.2,67S35.7,126,68.2,126c32.6,0,59.1-26.5,59.1-59.1S100.8,7.9,68.2,7.9z"/>
	</g>
</g>
</svg>
